<svg width="45" height="45" fill="none" xmlns="http://www.w3.org/2000/svg"><path d="M14.532 13.028a1.315 1.315 0 00-1.437.287l-2.824 2.833a1.326 1.326 0 000 1.871c.515.516 1.35.516 1.864 0l.574-.575v13.453c.065 1.753 2.572 1.752 2.637 0V14.25c0-.535-.322-1.017-.814-1.222zm22.089 8.223h-1.506v-1.51c-.065-1.754-2.572-1.753-2.637 0v1.51h-1.505c-1.748.065-1.746 2.58 0 2.645h1.505v1.511c.065 1.753 2.573 1.752 2.637 0v-1.51h1.506c1.747-.066 1.746-2.582 0-2.646zM22.5 12.75a4.147 4.147 0 00-4.143 4.157v2.833c0 1.062.395 2.062 1.114 2.834a4.133 4.133 0 00-1.114 2.833v2.834c.2 5.506 8.085 5.507 8.286 0v-2.834a4.133 4.133 0 00-1.114-2.833 4.133 4.133 0 001.114-2.834v-2.833A4.147 4.147 0 0022.5 12.75zm1.506 15.49c-.073 2.003-2.94 2.002-3.012 0v-2.833c.073-2.002 2.94-2.002 3.012 0v2.834zm0-8.5c-.073 2.002-2.94 2.002-3.012 0v-2.833c.073-2.002 2.94-2.002 3.012 0v2.833z" fill="#fff"/><path d="M22.5 0C10.093 0 0 10.127 0 22.574c1.131 29.905 43.873 29.897 45 0C45 10.125 34.907 0 22.5 0zm0 42.502c-10.953 0-19.863-8.94-19.863-19.928.998-26.402 38.732-26.394 39.726 0 0 10.988-8.91 19.928-19.863 19.928z" fill="#fff"/></svg>