<svg width="61" height="61" fill="none" xmlns="http://www.w3.org/2000/svg"><path d="M57.188 19.063H55.28a.953.953 0 00-.953-.953H9.531a5.719 5.719 0 01-5.692-6.277 5.874 5.874 0 015.897-5.16h3.608v1.906H9.736a3.955 3.955 0 00-4.003 3.431 3.813 3.813 0 003.798 4.194h44.797a2.86 2.86 0 012.86 2.86z" fill="#CFD5DD"/><path d="M4.766 55.281A4.771 4.771 0 010 50.516V13.345a6.68 6.68 0 016.672-6.672h3.812v1.906H6.672a4.771 4.771 0 00-4.766 4.766v37.17a2.86 2.86 0 002.86 2.86v1.906zm37.172-1.906h1.906v1.906h-1.907v-1.906zm10.484 1.906H45.75v-1.906h6.672c1.652 0 2.86-1.334 2.86-1.906V40.985h1.906v10.484c0 1.715-2.2 3.812-4.766 3.812z" fill="#CFD5DD"/><path d="M58.14 41.938H44.798a2.86 2.86 0 01-2.86-2.86V33.36a2.86 2.86 0 012.86-2.86H55.28V19.064h1.907v8.578h.953A2.86 2.86 0 0161 30.501v8.578a2.86 2.86 0 01-2.86 2.859zm-13.343-9.531a.954.954 0 00-.953.953v5.719a.953.953 0 00.953.953H58.14a.953.953 0 00.953-.953V30.5a.953.953 0 00-.953-.954h-.953v1.907a.953.953 0 01-.954.953H44.797z" fill="#CFD5DD"/><path d="M47.656 39.079a2.86 2.86 0 110-5.719 2.86 2.86 0 010 5.719zm0-3.813a.953.953 0 100 1.907.953.953 0 000-1.907zm8.898-9.39l-.639-1.796 2.918-1.036-7.34-20.873L20.206 13.29l-.638-1.796L51.755.057a.953.953 0 011.219.58l7.972 22.67a.953.953 0 01-.58 1.215l-3.812 1.354zM15.881 12.797l1.906-.678.639 1.796-1.906.678-.639-1.796zm-7.939 4.677l-.263-.748a.953.953 0 01.58-1.215l5.943-2.111.638 1.796-5.943 2.112-.054-.15-.9.316z" fill="#CFD5DD"/><path d="M17.931 18.02l-.639-1.796L45.05 6.362a.96.96 0 011.029.261.953.953 0 01.19.32 2.722 2.722 0 001.403 1.566 2.69 2.69 0 002.075.107.953.953 0 011.218.582l2.688 7.64-1.798.634-2.403-6.832a4.638 4.638 0 01-4.575-2.192L17.93 18.02zM37.172 61h-30.5a2.86 2.86 0 01-2.86-2.86V39.08a2.86 2.86 0 012.86-2.86h30.5a2.86 2.86 0 012.86 2.86v19.06A2.86 2.86 0 0137.171 61zm-30.5-22.874a.953.953 0 00-.953.953V58.14a.953.953 0 00.953.953h30.5a.953.953 0 00.953-.953V39.079a.953.953 0 00-.953-.953h-30.5z" fill="#CFD5DD"/><path d="M5.719 41.938h32.406v1.906H5.719v-1.906zm0 2.859h32.406v1.906H5.719v-1.906zM5.09 14.24l-.648-1.791L38.754.059a.953.953 0 011.182.47l1.906 3.812-1.706.852-1.525-3.05L5.09 14.24z" fill="#CFD5DD"/></svg>