<svg width="67" height="67" fill="none" xmlns="http://www.w3.org/2000/svg"><path d="M61.624 4.84H53.06a.982.982 0 000 1.965h8.564a.982.982 0 000-1.965zM48.197 6.805h1.044a.982.982 0 000-1.965h-1.044a.982.982 0 000 1.965zm0 4.616h13.427a.982.982 0 000-1.965H48.197a.982.982 0 000 1.965zm3.55 46.724c0-3.925-1.309-7.776-3.693-10.888l.182-3.354a3.994 3.994 0 00-3.988-4.216H33.505a1.875 1.875 0 01-.794-1.531v-2.744c1.665-1.078 2.835-2.308 3.694-3.772h1.9a3.992 3.992 0 003.984-3.99v-7.338a3.166 3.166 0 00-1.785-2.85v-5.15a4.254 4.254 0 00-4.247-4.253h-.11a.122.122 0 01-.121-.121 4.255 4.255 0 00-4.247-4.253H21.385c-5.16 0-9.357 4.203-9.357 9.369v4.408a3.166 3.166 0 00-1.785 2.85v3.732a3.168 3.168 0 003.163 3.166h1.267c.328 2.778 1.63 5.314 3.667 7.077.478.414.973.784 1.482 1.114v2.755c0 .611-.302 1.18-.798 1.53H8.284a3.994 3.994 0 00-3.988 4.217l.182 3.354A17.962 17.962 0 00.785 58.145v3.701A3.085 3.085 0 000 63.905 3.097 3.097 0 003.092 67H49.44a3.097 3.097 0 003.092-3.096c0-.79-.298-1.51-.786-2.058v-3.701zm-1.963 0v2.683a3.095 3.095 0 00-.343-.02H47.32l.554-10.217a15.983 15.983 0 011.91 7.554zm-9.558-38.313c.064.148.1.31.1.48v3.732c0 .662-.538 1.201-1.2 1.201H37.96v-3.704l.605-.21a2.893 2.893 0 001.662-1.5zm-6.553 11.385H31.21a.721.721 0 010-1.442h2.463a.721.721 0 010 1.442zm4.632-1.542h-.992c.276-.79.467-1.616.567-2.464h1.246c.425 0 .83-.085 1.2-.238v.678a2.025 2.025 0 01-2.021 2.024zM13.99 13.054c0-4.082 3.317-7.403 7.394-7.403h10.394a2.288 2.288 0 012.284 2.287c0 1.15.935 2.087 2.085 2.087h.11a2.288 2.288 0 012.284 2.287v6.284a.93.93 0 01-.624.878l-2.062.72a.126.126 0 01-.169-.121l.004-3.905c.012-2.85-2.654-5.335-6.388-4.134-1.878.604-4.202.602-6.074 0-3.695-1.19-6.4 1.252-6.387 4.131l.004 3.908c0 .09-.087.15-.169.12l-2.063-.719a.931.931 0 01-.623-.878v-5.542zm-1.785 10.99v-3.732c0-.17.037-.333.101-.48a2.892 2.892 0 001.662 1.498l.605.211v3.704h-1.168c-.661 0-1.2-.539-1.2-1.201zm4.349 2.032c-.033-1.292-.013-2.663-.018-3.919a2.092 2.092 0 002.273-2.087l-.005-3.91c-.007-1.596 1.422-3.028 3.824-2.255 2.276.732 5.006.73 7.275 0 2.288-.736 3.831.56 3.824 2.258l-.004 3.908a2.09 2.09 0 002.272 2.086v3.998a9.709 9.709 0 01-.405 2.467 2.672 2.672 0 00-1.918-.812H31.21a2.688 2.688 0 00-2.683 2.686 2.688 2.688 0 002.683 2.686h1.247c-1.813 1.417-3.874 2.156-6.14 2.193-4.954-.04-9.62-3.704-9.762-9.3zm5.23 12.08v-1.72a11.95 11.95 0 004.53.905h.022a11.963 11.963 0 004.411-.896v1.71c0 .537.112 1.057.319 1.532h-9.602a3.83 3.83 0 00.32-1.531zM4.659 50.591l.155 2.859a.982.982 0 101.96-.107l-.518-9.547a2.031 2.031 0 012.029-2.144h35.963c1.162 0 2.092.974 2.029 2.144l-.923 17.013h-15.39a6.038 6.038 0 011.47-3.043l.028-.032c2.971-3.327 2.082-8.53-1.758-10.715-.985-.56-2.237.138-2.237 1.3v4.459a.37.37 0 01-.37.37h-1.661a.37.37 0 01-.37-.37v-4.459c0-1.16-1.25-1.862-2.237-1.3-3.851 2.19-4.722 7.396-1.756 10.719l.025.028a6.037 6.037 0 011.47 3.043H7.178l-.157-2.905a.982.982 0 10-1.96.106l.152 2.799H3.092c-.116 0-.23.007-.344.02v-2.684c0-2.642.669-5.244 1.91-7.554zm19.893 10.218a7.995 7.995 0 00-1.994-4.358l-.024-.026a5.016 5.016 0 01.569-7.22v3.573a2.337 2.337 0 002.333 2.335h1.661a2.337 2.337 0 002.333-2.335v-3.573a5.017 5.017 0 01.567 7.222l-.022.024a7.993 7.993 0 00-1.994 4.358h-3.43zm24.889 4.226H3.09a1.13 1.13 0 010-2.26h46.35a1.13 1.13 0 010 2.26z" fill="#CFD5DD"/><path d="M66.018 6.725c.543 0 .982-.44.982-.983V3.84C67 1.723 65.28 0 63.164 0H46.657a3.842 3.842 0 00-3.835 3.84v8.266c0 2.118 1.72 3.84 3.835 3.84.378 0 .686.308.686.687v5.111c0 .739.477 1.367 1.188 1.564.715.198 1.445-.1 1.822-.73l3.773-6.298a.689.689 0 01.588-.334h8.45A3.842 3.842 0 0067 12.107v-1.77a.982.982 0 10-1.963 0v1.77c0 1.034-.84 1.875-1.873 1.875h-8.45c-.926 0-1.796.494-2.272 1.288l-3.136 5.237v-3.873a2.653 2.653 0 00-2.649-2.652 1.876 1.876 0 01-1.873-1.875V3.84c0-1.034.84-1.875 1.873-1.875h16.507c1.033 0 1.873.841 1.873 1.875v1.902c0 .543.44.983.981.983z" fill="#CFD5DD"/></svg>