<svg width="59" height="59" fill="none" xmlns="http://www.w3.org/2000/svg"><path d="M2.945 53.1h2.946v2.95A2.947 2.947 0 008.836 59h35.346a2.948 2.948 0 002.946-2.95V29.434l6.26-5.82 1.336 1.44L49.404 30a.985.985 0 00-.05 1.39.98.98 0 001.387.051l5.32-4.944a1.965 1.965 0 00.105-2.78l-1.336-1.441 2.877-2.676a3.937 3.937 0 00-1.494-6.68 3.923 3.923 0 00-3.849.914L47.128 18.7V8.85c0-1.63-1.319-2.95-2.946-2.95h-2.945V2.95c0-1.63-1.319-2.95-2.946-2.95h-27.49c-.021 0-.04.011-.062.012a.986.986 0 00-.254.05c-.032.012-.06.02-.091.033a.984.984 0 00-.288.197L.288 10.125a.98.98 0 00-.197.289c-.013.029-.021.06-.032.091a.986.986 0 00-.051.254c.003.018-.008.037-.008.058V50.15c0 1.63 1.319 2.95 2.945 2.95zm42.22 2.95c0 .543-.44.983-.983.983H8.836a.982.982 0 01-.981-.983V53.1h30.437a2.948 2.948 0 002.945-2.95V34.91l3.927-3.652V56.05zM26.901 44.181a11.238 11.238 0 01-3.493 1.96 10.707 10.707 0 012.19-3.367l.055.06 1.248 1.347zm1.534-1.236l-1.494-1.61 3.819-4.558 2.494 2.692-4.82 3.476zm6.347-4.72l-1.623-1.743-1.05-1.132 17.27-16.061 2.673 2.886L39.59 33.761c-.014.013-.028.024-.04.038l-4.766 4.426zm18.915-22.95a1.923 1.923 0 011.408-.525 1.969 1.969 0 011.262 3.406l-2.877 2.677-2.671-2.883 2.878-2.675zm-9.516-7.408c.543 0 .982.44.982.983v11.676l-3.927 3.651V7.867h2.945zM39.273 2.95v23.053l-9.218 8.571a.508.508 0 00-.037.053c-.014.014-.034.02-.047.035l-1.44 1.722H6.872a.982.982 0 000 1.966h20.009l-1.958 2.336-.132.123a12.907 12.907 0 00-3.122 4.425h-8.906a.982.982 0 000 1.967h8.97c.056.105.121.203.196.295.364.389.873.608 1.404.603.218 0 .435-.033.643-.098a12.87 12.87 0 004.822-2.866l.132-.12 6.374-4.6c.016-.012.022-.03.037-.042.015-.012.041-.02.058-.037l3.873-3.599V50.15c0 .543-.44.983-.982.983H2.946a.982.982 0 01-.982-.983V11.8h6.873a2.948 2.948 0 002.946-2.95V1.966h26.51c.542 0 .981.44.981.984zm-29.455.407V8.85c0 .543-.44.983-.982.983H3.352l6.466-6.476z" fill="#CFD5DD"/><path fill-rule="evenodd" clip-rule="evenodd" d="M6.873 47.2h1.963a.983.983 0 000-1.967H6.873a.983.983 0 000 1.967zM5.89 17.7c0 .543.44.983.983.983h27.491a.983.983 0 000-1.966H6.873a.983.983 0 00-.982.983zm28.474 3.933h-4.909a.983.983 0 000 1.967h4.91a.983.983 0 000-1.967zM6.873 23.6h17.673a.983.983 0 000-1.967H6.873a.983.983 0 000 1.967zm4.909 2.95h-4.91a.983.983 0 000 1.967h4.91a.983.983 0 000-1.967zm21.601 0H16.69a.983.983 0 000 1.967h16.692a.983.983 0 000-1.967zM9.818 31.467H6.873a.983.983 0 000 1.966h2.945a.983.983 0 000-1.966zm17.673 0H14.728a.983.983 0 000 1.966H27.49a.983.983 0 000-1.966zM18.655 8.85h7.854a.983.983 0 000-1.967h-7.854a.983.983 0 000 1.967z" fill="#CFD5DD"/></svg>