<svg width="68" height="77" fill="none" xmlns="http://www.w3.org/2000/svg"><path d="M32.009 41a.418.418 0 01-.292-.12.431.431 0 01-.113-.309v-1.577h-1.199a.383.383 0 01-.292-.12.431.431 0 01-.113-.308v-.652c0-.125.038-.228.113-.308a.383.383 0 01.292-.12h1.199v-.875h-1.199a.383.383 0 01-.292-.12.472.472 0 01-.113-.308v-1.286a.43.43 0 01.113-.308.361.361 0 01.292-.138h1.199V29.43c0-.126.038-.229.113-.309a.418.418 0 01.292-.12h4.552c.897 0 1.674.149 2.333.446a3.33 3.33 0 011.555 1.303c.367.582.551 1.32.551 2.211 0 .834-.184 1.52-.55 2.057-.368.537-.886.937-1.556 1.2-.659.263-1.436.394-2.333.394h-1.944v.875h2.17c.12 0 .217.04.293.12.086.08.13.183.13.308v.652a.402.402 0 01-.13.308.383.383 0 01-.292.12h-2.17v1.577a.431.431 0 01-.114.309.383.383 0 01-.292.12H32.01zm2.56-6.549h1.911c.465 0 .832-.125 1.102-.377.27-.251.405-.634.405-1.148 0-.435-.12-.8-.357-1.097-.237-.298-.62-.446-1.15-.446h-1.91v3.068z" fill="#FFA147"/><path d="M16.432 35.128c0 10.115 8.22 18.315 18.359 18.315 10.14 0 18.358-8.2 18.358-18.315 0-10.116-8.219-18.315-18.358-18.315-10.134.01-18.347 8.204-18.359 18.315zm18.359-15.79c8.74 0 15.826 7.07 15.826 15.79 0 8.72-7.085 15.789-15.826 15.789s-15.827-7.069-15.827-15.79c.01-8.715 7.09-15.778 15.827-15.788z" fill="#FFA147"/><path d="M59.39 56.557l-9.917 4.674a8.08 8.08 0 00-6.886-4.239l-9.156-.25a9.689 9.689 0 01-4.16-1.073l-.932-.481a16.466 16.466 0 00-15.22.016l.058-2.106a1.264 1.264 0 00-1.23-1.297l-10.04-.276c-.7-.02-1.28.53-1.3 1.228L0 74.73a1.264 1.264 0 001.231 1.298l10.04.275h.034c.686 0 1.248-.544 1.266-1.228l.03-1.052 2.607-1.393a4.483 4.483 0 013.339-.364l15.574 4.36a16.715 16.715 0 003.505.373 16.927 16.927 0 007.057-1.536 1.18 1.18 0 00.157-.087l22.58-14.57c.563-.363.745-1.1.415-1.683a6.403 6.403 0 00-8.445-2.566zM2.568 73.538l.536-19.453 7.508.206-.537 19.454-7.507-.207zm40.975-.33a14.385 14.385 0 01-8.778.977l-15.532-4.35a7.015 7.015 0 00-5.219.57l-1.332.712.356-12.934a13.945 13.945 0 0114.138-.752l.931.481a12.25 12.25 0 005.256 1.355l9.156.25a5.55 5.55 0 015.277 4.415l-13.637-.376a1.264 1.264 0 00-1.3 1.228 1.265 1.265 0 001.23 1.298l15.05.413h.035c.686 0 1.247-.545 1.265-1.229a7.99 7.99 0 00-.122-1.638l10.172-4.795.03-.014a3.875 3.875 0 014.374.61l-21.35 13.779zm-7.486-59.946V1.263C36.057.566 35.49 0 34.79 0s-1.266.566-1.266 1.263v11.999c0 .697.567 1.263 1.266 1.263.699 0 1.266-.566 1.266-1.263zm9.495 0V7.578c0-.697-.567-1.263-1.266-1.263-.7 0-1.266.566-1.266 1.263v5.684c0 .697.567 1.263 1.266 1.263.7 0 1.266-.566 1.266-1.263zm-18.99 0V7.578c0-.697-.567-1.263-1.266-1.263-.7 0-1.266.566-1.266 1.263v5.684c0 .697.566 1.263 1.266 1.263.699 0 1.266-.566 1.266-1.263z" fill="#FFA147"/></svg>