<svg width="14" height="12" fill="none" xmlns="http://www.w3.org/2000/svg"><path d="M13.128 4.272a.945.945 0 00-.564-.283l-3.397-.44L7.823.532C7.626.09 7.086-.117 6.616.067a.896.896 0 00-.496.466L4.776 3.548l-3.398.44c-.506.067-.86.506-.789.981.03.204.137.392.301.529L3.45 7.64l-.526 3.363a.839.839 0 00.424.862.96.96 0 001.008-.017l2.615-1.67 2.616 1.672c.422.268.996.165 1.282-.23.13-.18.184-.4.15-.615l-.526-3.364 2.56-2.143a.832.832 0 00.075-1.226zM9.7 7.157a.414.414 0 00-.147.382l.548 3.6-2.873-1.834a.481.481 0 00-.513 0l-2.89 1.822.563-3.59a.414.414 0 00-.148-.38L1.502 4.839l3.656-.473a.454.454 0 00.359-.26L6.977.857a.019.019 0 01.003.006l1.445 3.242c.063.14.199.238.36.259l3.66.494L9.7 7.157z" fill="#FEB300"/></svg>