<svg width="14" height="12" viewBox="0 0 14 12" fill="none" xmlns="http://www.w3.org/2000/svg">
<path d="M13.1277 4.27174C12.9816 4.11781 12.782 4.0177 12.5644 3.98927V3.98885L9.16712 3.54829L7.82272 0.532645C7.62642 0.0912375 7.0861 -0.1172 6.61591 0.0670818C6.39176 0.154941 6.21354 0.322224 6.11997 0.532645L4.77557 3.54829L1.37825 3.98885C0.87209 4.05499 0.518878 4.49383 0.589333 4.96899C0.619612 5.17318 0.726258 5.3606 0.890226 5.49775L3.44986 7.64046L2.92394 11.0028C2.86696 11.3442 3.034 11.6844 3.34758 11.8654C3.65673 12.051 4.0544 12.0441 4.35599 11.8478L6.97132 10.1782L9.58665 11.8496C10.0087 12.1184 10.583 12.0153 10.8694 11.6191C10.9996 11.4391 11.0529 11.2197 11.0187 11.0045L10.4928 7.64086L13.0525 5.49815C13.434 5.17901 13.4677 4.6299 13.1277 4.27174ZM9.70124 7.15661C9.58673 7.25266 9.53133 7.39629 9.55377 7.53889L10.1016 11.1386L7.22925 9.30534C7.07441 9.20656 6.87099 9.20656 6.71614 9.30534L3.82691 11.1275L4.38887 7.53718C4.41069 7.39516 4.35532 7.25231 4.2414 7.15664L1.50236 4.83907L5.15807 4.36552C5.31813 4.34481 5.45458 4.2462 5.51687 4.10626L6.97678 0.857065C6.97843 0.858973 6.97967 0.861158 6.98044 0.863493L8.42528 4.10455C8.48758 4.24449 8.62405 4.3431 8.78409 4.36381L12.4444 4.85835L9.70124 7.15661Z" fill="#FEB300"/>
</svg>
